<?xml version="1.0" encoding="UTF-8"?>
<svg width="12px" height="14px" viewBox="0 0 12 14" version="1.1" xmlns="http://www.w3.org/2000/svg" xmlns:xlink="http://www.w3.org/1999/xlink">
    <title>ico_down</title>
    <g id="页面-1" stroke="none" stroke-width="1" fill="none" fill-rule="evenodd">
        <g id="分析台" transform="translate(-963.000000, -1617.000000)" fill="#00E4E1" fill-rule="nonzero">
            <g id="编组-9" transform="translate(270.000000, 1285.000000)">
                <g id="ico_down" transform="translate(699.000000, 339.000000) scale(-1, -1) translate(-699.000000, -339.000000) translate(693.000000, 332.000000)">
                    <path d="M6.55727314,1.73567739 L10.6844522,6.13001589 C10.8710182,6.32865857 11.1735056,6.32865857 11.3600716,6.13001589 C11.5466481,5.93136198 11.5466375,5.60930523 11.3600716,5.41066255 L6.41828557,0.148986224 C6.23171962,-0.0496564556 5.92924273,-0.0496676938 5.74266622,0.148986224 L0.639924459,5.53988764 C0.453358514,5.73853032 0.453358514,6.0605983 0.639924459,6.25924098 C0.826490405,6.45788366 1.12897786,6.45788366 1.3155438,6.25924098 L5.60181016,1.73766685 L5.60229575,13.4913385 C5.60229575,13.7722685 5.81618205,14 6.08003253,14 C6.34387244,14 6.55775874,13.7722572 6.55776929,13.4913385 L6.55728369,1.73568863 L6.55727314,1.73567739 Z" id="路径"></path>
                </g>
            </g>
        </g>
    </g>
</svg>