<?xml version="1.0" encoding="UTF-8"?>
<svg width="14px" height="16px" viewBox="0 0 14 16" version="1.1" xmlns="http://www.w3.org/2000/svg" xmlns:xlink="http://www.w3.org/1999/xlink">
    <title>ico_data</title>
    <g id="页面-1" stroke="none" stroke-width="1" fill="none" fill-rule="evenodd">
        <g id="分析台2" transform="translate(-618.000000, -253.000000)" fill="#000000" fill-rule="nonzero">
            <g id="位图备份" transform="translate(270.000000, 142.000000)">
                <g id="编组-17" transform="translate(20.000000, 106.000000)">
                    <g id="ico_data" transform="translate(328.000000, 5.000000)">
                        <path d="M2.79070469,7.93851705 L0.70982345,7.93851705 C0.316885469,7.93851705 0,8.26258195 0,8.65961511 L0,14.4455686 C0,14.8447479 0.318998038,15.1666667 0.70982345,15.1666667 L2.79070469,15.1666667 C3.18364267,15.1666667 3.50052814,14.8447479 3.50052814,14.4455686 L3.50052814,8.65961511 C3.50052814,8.26043583 3.18364267,7.93851705 2.79070469,7.93851705 Z M2.48649464,14.1365266 L1.0140335,14.1365266 L1.0140335,8.96865714 L2.48649464,8.96865714 L2.48649464,14.1365266 Z M8.04044062,4.4145795 L5.95955938,4.4145795 C5.5666214,4.4145795 5.24973593,4.73649828 5.24973593,5.13567756 L5.24973593,14.4455686 C5.24973593,14.8447479 5.5666214,15.1666667 5.95955938,15.1666667 L8.04044062,15.1666667 C8.4333786,15.1666667 8.75026407,14.8447479 8.75026407,14.4455686 L8.75026407,5.13567756 C8.75026407,4.7386444 8.4333786,4.4145795 8.04044062,4.4145795 Z M7.73623057,14.1365266 L6.26376943,14.1365266 L6.26376943,5.44471959 L7.73623057,5.44471959 L7.73623057,14.1365266 Z M13.2901766,0 L11.2092953,0 C10.8163573,0 10.4994719,0.321918777 10.4994719,0.721098061 L10.4994719,14.4455686 C10.4994719,14.8447479 10.8163573,15.1666667 11.2092953,15.1666667 L13.2901766,15.1666667 C13.681002,15.1666667 14,14.8426018 14,14.4455686 L14,0.721098061 C14,0.324064903 13.6831145,0 13.2901766,0 Z M12.9859665,14.1365266 L11.5135054,14.1365266 L11.5135054,1.03014009 L12.9859665,1.03014009 L12.9859665,14.1365266 Z" id="形状"></path>
                    </g>
                </g>
            </g>
        </g>
    </g>
</svg>