<?xml version="1.0" encoding="UTF-8"?>
<svg width="18px" height="17px" viewBox="0 0 18 17" version="1.1" xmlns="http://www.w3.org/2000/svg" xmlns:xlink="http://www.w3.org/1999/xlink">
    <title>ico_zys</title>
    <defs>
        <filter id="filter-1">
            <feColorMatrix in="SourceGraphic" type="matrix" values="0 0 0 0 0.864401 0 0 0 0 0.882809 0 0 0 0 0.931131 0 0 0 1.000000 0"></feColorMatrix>
        </filter>
        <filter id="filter-2">
            <feColorMatrix in="SourceGraphic" type="matrix" values="0 0 0 0 1.000000 0 0 0 0 1.000000 0 0 0 0 1.000000 0 0 0 1.000000 0"></feColorMatrix>
        </filter>
    </defs>
    <g id="页面-1" stroke="none" stroke-width="1" fill="none" fill-rule="evenodd">
        <g id="概览图备份-4" transform="translate(-319.000000, -161.000000)">
            <g id="ico_zys" transform="translate(121.000000, 132.000000)" filter="url(#filter-1)">
                <g transform="translate(198.000000, 29.000000)" filter="url(#filter-2)" id="编组">
                    <g>
                        <path d="M16.3701838,5.73033708 C16.5785111,5.93170033 16.9097985,5.93170033 17.1181258,5.73033708 L17.8564788,4.9758427 C18.0478404,4.76775941 18.0478404,4.44853273 17.8564788,4.24044944 L17.1181258,3.47640449 C17.0337748,3.3902609 16.9218361,3.33620518 16.8016888,3.32359551 C17.077837,3.28885285 17.2793375,3.04634903 17.2619608,2.76966292 L17.2619608,2.04382022 C17.2696448,1.50934851 17.0638133,0.993732711 16.6897582,0.61043019 C16.315703,0.227127669 15.8040731,0.00754511258 15.2674488,0 L2.72503663,0 C2.18841227,0.00754511258 1.67678238,0.227127669 1.30272722,0.61043019 C0.928672071,0.993732711 0.722840651,1.50934851 0.73052461,2.04382022 L0.73052461,10.7825843 C0.727529912,10.9272803 0.786864951,11.0663325 0.893537612,11.1646067 C0.305214896,11.3555366 -0.0651862471,11.9344505 0.00954974259,12.5462247 C0.0842857323,13.1579989 0.583259739,13.6315573 1.20038562,13.6764045 C0.931785625,13.7057592 0.728912451,13.9325612 0.73052461,14.2016854 L0.73052461,14.9561798 C0.722840651,15.4906515 0.928672071,16.0062673 1.30272722,16.3895698 C1.67678238,16.7728723 2.18841227,16.9924549 2.72503663,17 L15.2674488,17 C15.8040731,16.9924549 16.315703,16.7728723 16.6897582,16.3895698 C17.0638133,16.0062673 17.2696448,15.4906515 17.2619608,14.9561798 L17.2619608,6.58988764 C17.2619608,6.30505764 17.0301311,6.0741573 16.7441548,6.0741573 C16.4581784,6.0741573 16.2263488,6.30505764 16.2263488,6.58988764 L16.2263488,14.9466292 C16.2263488,15.4740922 15.7970346,15.9016854 15.2674488,15.9016854 L2.72503663,15.9016854 C2.19545078,15.9016854 1.76613662,15.4740922 1.76613662,14.9466292 L1.76613662,14.2303371 C1.76774878,13.9612129 1.56487561,13.7344109 1.29627562,13.7050562 C1.97800583,13.6692969 2.51056729,13.1051924 2.50448963,12.4252809 C2.5047451,12.2777279 2.47540402,12.1316106 2.41818863,11.9955056 L4.75790466,9.7988764 C5.38203726,10.0152829 6.06875308,9.72097152 6.34008967,9.12078652 L8.9291197,9.12078652 C9.21492881,9.73036374 9.93095882,10.0090051 10.5559806,9.75387544 C11.1810023,9.49874582 11.4947511,8.79975576 11.2688357,8.16573034 L13.6277298,5.84494382 C14.2293664,5.9956891 14.8526387,5.69336414 15.1044358,5.12865169 L16.2551158,5.12865169 C16.1599515,5.33303772 16.2062453,5.57510612 16.3701838,5.73033708 L16.3701838,5.73033708 Z M1.02778361,12.4157303 C1.02518678,12.3549252 1.04697588,12.2955876 1.08834748,12.2507988 C1.12971908,12.2060099 1.18727631,12.1794471 1.24833062,12.1769663 C1.38072708,12.1769663 1.48805562,12.2838646 1.48805562,12.4157303 C1.48805562,12.5475961 1.38072708,12.6544944 1.24833062,12.6544944 C1.1836489,12.6523188 1.1228764,12.6231178 1.08090857,12.5740487 C1.03894074,12.5249797 1.01965692,12.4605782 1.02778361,12.3966292 L1.02778361,12.4157303 Z M5.42913466,8.59550562 C5.41876822,8.71378221 5.31591798,8.80245017 5.19690589,8.79571176 C5.07789381,8.78897336 4.98579522,8.68926749 4.98895363,8.57058278 C4.99211204,8.45189807 5.08938429,8.35719137 5.20858766,8.35674157 C5.26964196,8.35922243 5.32719919,8.38578519 5.3685708,8.43057406 C5.4099424,8.47536292 5.4317315,8.53470046 5.42913466,8.59550562 Z M10.3195247,8.59550562 C10.3091375,8.71250677 10.2081754,8.80066709 10.090354,8.79561782 C9.97253262,8.79056855 9.87954674,8.69409652 9.87928786,8.57663915 C9.87903006,8.45918179 9.97159069,8.36230493 10.0893887,8.35674149 C10.1521229,8.35668731 10.2121603,8.38214309 10.2556058,8.42721734 C10.2990512,8.47229158 10.3221387,8.53307716 10.3195247,8.59550562 Z M13.9729338,4.36460674 C14.0339881,4.3670876 14.0915453,4.39365036 14.1329169,4.43843922 C14.1742885,4.48322809 14.1960776,4.54256562 14.1934808,4.60337079 C14.2121188,4.6909393 14.175542,4.78101284 14.1010233,4.83105521 C14.0265046,4.88109758 13.9289519,4.88109758 13.8544332,4.83105521 C13.7799145,4.78101284 13.7433377,4.6909393 13.7619758,4.60337079 C13.7563992,4.48023409 13.8495958,4.37475336 13.9729338,4.36460674 L13.9729338,4.36460674 Z M16.3701838,3.47640449 C16.2179885,3.63870962 16.1800406,3.87682276 16.2742938,4.07808989 L15.1236138,4.07808989 C14.8835272,3.53130948 14.289126,3.22953591 13.7038286,3.35727422 C13.1185312,3.48501254 12.7052955,4.00669795 12.7167747,4.60337079 C12.7181431,4.79783254 12.7606172,4.98982711 12.8414317,5.16685393 L10.5688387,7.40168539 C9.93629046,7.17052538 9.23147711,7.46128966 8.9482977,8.07022472 L6.35926767,8.07022472 C6.16072798,7.61298829 5.70875621,7.31663296 5.20858766,7.31573034 C4.50798898,7.32620428 3.94708147,7.89765706 3.95242865,8.59550562 C3.95223726,8.75544043 3.9814878,8.91405501 4.03872965,9.06348315 L1.74695862,11.2123596 L1.60312362,11.1646067 C1.70598599,11.0637066 1.76458877,10.9263705 1.76613662,10.7825843 L1.76613662,2.04382022 C1.75299414,1.78235583 1.8481886,1.52698065 2.02946135,1.33740723 C2.2107341,1.14783382 2.46219135,1.04068378 2.72503663,1.04101049 L15.2674488,1.04101049 C15.5302941,1.04068378 15.7817513,1.14783382 15.9630241,1.33740723 C16.1442968,1.52698065 16.2394913,1.78235583 16.2263488,2.04382022 L16.2263488,2.76966292 C16.2252163,3.04209801 16.4333973,3.27017912 16.7057988,3.29494382 C16.5748009,3.31063413 16.4547577,3.37553921 16.3701838,3.47640449 L16.3701838,3.47640449 Z" id="形状" fill="#000000" fill-rule="nonzero"></path>
                    </g>
                </g>
            </g>
        </g>
    </g>
</svg>