<?xml version="1.0" encoding="UTF-8"?>
<svg width="12px" height="12px" viewBox="0 0 12 12" version="1.1" xmlns="http://www.w3.org/2000/svg" xmlns:xlink="http://www.w3.org/1999/xlink">
    <title>ico_explain</title>
    <g id="页面-1" stroke="none" stroke-width="1" fill="none" fill-rule="evenodd">
        <g id="分析台2" transform="translate(-620.000000, -175.000000)" fill="#798196" fill-rule="nonzero">
            <g id="位图备份" transform="translate(270.000000, 142.000000)">
                <g id="ico_explain" transform="translate(356.000000, 39.000000) scale(-1, 1) rotate(-180.000000) translate(-356.000000, -39.000000) translate(350.000000, 33.000000)">
                    <path d="M6.00023083,0 C9.31358443,0 12,2.68641557 12,5.99976917 C12,9.31358443 9.31358443,12 6.00023083,12 C2.68641557,12 0,9.31358443 0,5.99976917 C0,2.68687724 2.68687724,0 6.00023083,0 Z M6.00023083,0.923325511 C3.19655292,0.923325511 0.923325511,3.19609126 0.923325511,5.99976917 C0.923325511,8.80344708 3.19655292,11.0766745 6.00023083,11.0766745 C8.80390874,11.0766745 11.0766745,8.80344708 11.0766745,5.99976917 C11.0766745,3.19609126 8.80390874,0.923325511 6.00023083,0.923325511 Z M6.12487978,8.35886585 C6.37984907,8.35886585 6.58654253,8.5655593 6.58654253,8.8205286 C6.58654253,9.0754979 6.37984907,9.28219136 6.12487978,9.28219136 C5.86991048,9.28219136 5.66321702,9.0754979 5.66321702,8.8205286 C5.66321702,8.5655593 5.86991048,8.35886585 6.12487978,8.35886585 Z M6.12487978,2.76951487 C6.3591073,2.76931155 6.55636801,2.94454416 6.58377255,3.17716308 L6.58700419,3.23117762 L6.58700419,7.16869927 C6.58894764,7.4145666 6.39785073,7.61881621 6.15239789,7.63321841 C5.90694504,7.64762061 5.69327259,7.46712125 5.66644866,7.22271381 L5.66367868,7.16869927 L5.66367868,3.23071596 C5.66367868,2.97574666 5.87037214,2.76905321 6.12534144,2.76905321 L6.12487978,2.76951487 Z" id="形状"></path>
                </g>
            </g>
        </g>
    </g>
</svg>