<?xml version="1.0" encoding="UTF-8"?>
<svg width="16px" height="17px" viewBox="0 0 16 17" version="1.1" xmlns="http://www.w3.org/2000/svg" xmlns:xlink="http://www.w3.org/1999/xlink">
    <title>ico_df</title>
    <defs>
        <filter id="filter-1">
            <feColorMatrix in="SourceGraphic" type="matrix" values="0 0 0 0 0.864401 0 0 0 0 0.882809 0 0 0 0 0.931131 0 0 0 1.000000 0"></feColorMatrix>
        </filter>
    </defs>
    <g id="页面-1" stroke="none" stroke-width="1" fill="none" fill-rule="evenodd">
        <g id="概览图备份-4" transform="translate(-329.000000, -672.000000)">
            <g id="ico_df" transform="translate(121.000000, 642.000000)" filter="url(#filter-1)">
                <g transform="translate(208.000000, 30.000000)">
                    <path d="M11.9988674,3.31583989 L11.9988674,0.551322225 C11.9979991,0.403932806 11.9371997,0.263003739 11.8300085,0.159918335 C11.722532,0.0563868818 11.5777087,-0.00109819969 11.4272182,1.85779123e-05 C11.2767105,-0.00118684871 11.131854,0.0563113896 11.0244279,0.159918335 C10.9173466,0.263132401 10.8563927,0.403989219 10.855569,0.551322225 L10.855569,3.31583989 L5.14237188,3.31583989 L5.14237188,0.551322225 C5.14150363,0.403932806 5.08070421,0.263003739 4.97351297,0.159918335 C4.86618815,0.0564107904 4.72149995,-0.00107945329 4.57113453,1.85779123e-05 C4.42062682,-0.00118684871 4.27577038,0.0563113896 4.16834425,0.159918335 C4.06126297,0.263132401 4.00030904,0.403989219 3.99948533,0.551322225 L3.99948533,3.31583989 L2.28494961,3.31583989 C1.02839219,3.31583989 1.23586891e-07,4.30871863 1.23586891e-07,5.52057311 L1.23586891e-07,14.7968859 C-0.00041160456,16.0083355 1.02798034,17 2.28453776,17 L13.7150505,17 C14.9716079,17 16.0000001,16.0083355 16.0000001,14.7968859 L16.0000001,5.52057311 C16.0000001,4.30871866 14.9716079,3.31583989 13.7150505,3.31583989 L11.9988674,3.31583989 L11.9988674,3.31583989 Z M13.7134031,15.8978635 L2.28289035,15.8978635 C1.65891907,15.902112 1.14870389,15.4100865 1.14123939,14.7968859 L1.14123939,5.52057311 C1.14123939,4.91262207 1.65317018,4.41840888 2.28289035,4.41840888 L13.7150505,4.41840888 C14.3451825,4.41840888 14.8567015,4.91262207 14.8567015,5.52057311 L14.8567015,14.7968859 C14.847892,15.4101579 14.3374674,15.901676 13.7134031,15.8978635 L13.7134031,15.8978635 Z M10.7769054,9.70701618 L6.5331927,9.70701618 L9.19004353,6.05081001 C9.62248708,5.4570256 8.75965924,4.87295548 8.32762754,5.46795417 L8.14723681,5.71566791 L5.08718384,9.9227538 C4.8487221,10.2498007 5.10365788,10.7241806 5.51797998,10.7241806 L9.76169273,10.7241806 L8.14723681,12.945509 L7.10443005,14.3787677 C6.6728102,14.9741712 7.53522619,15.5578365 7.96561052,14.9628379 L8.14723681,14.7143146 L11.2072897,10.506824 C11.4461633,10.1801818 11.192875,9.70701622 10.7756699,9.70701618 L10.7769054,9.70701618 L10.7769054,9.70701618 Z" id="形状" fill="#FFFFFF" fill-rule="nonzero"></path>
                </g>
            </g>
        </g>
    </g>
</svg>