<?xml version="1.0" encoding="UTF-8"?>
<svg width="19px" height="20px" viewBox="0 0 19 20" version="1.1" xmlns="http://www.w3.org/2000/svg" xmlns:xlink="http://www.w3.org/1999/xlink">
    <title>ico_fwf</title>
    <defs>
        <filter id="filter-1">
            <feColorMatrix in="SourceGraphic" type="matrix" values="0 0 0 0 0.864401 0 0 0 0 0.882809 0 0 0 0 0.931131 0 0 0 1.000000 0"></feColorMatrix>
        </filter>
    </defs>
    <g id="页面-1" stroke="none" stroke-width="1" fill="none" fill-rule="evenodd">
        <g id="概览图备份-4" transform="translate(-318.000000, -416.000000)">
            <g id="ico_fwf" transform="translate(121.000000, 387.000000)" filter="url(#filter-1)">
                <g transform="translate(197.000000, 29.000000)">
                    <path d="M11.4418332,7.84569733 L5.55811596,7.84569733 C5.24968346,7.84569733 5,7.65652819 5,7.42284866 C5,7.18916914 5.24968346,7 5.55811596,7 L11.4418332,7 C11.7502657,7 11.9999748,7.18916914 11.9999748,7.42284866 C12.0028866,7.65652819 11.7532031,7.84569733 11.4418332,7.84569733 L11.4418332,7.84569733 Z M11.4418332,10 L5.55811596,10 C5.24968346,10 5,9.81083086 5,9.57715134 C5,9.34347181 5.24968346,9.15430267 5.55811596,9.15430267 L11.4418332,9.15430267 C11.7502657,9.15430267 11.9999748,9.34347181 11.9999748,9.57715134 C12.0028866,9.80860534 11.7532031,10 11.4418332,10 L11.4418332,10 Z" id="形状" fill="#000000" fill-rule="nonzero"></path>
                    <path d="M8.5,12 C8.22368421,12 8,11.797136 8,11.5465394 L8,7.45346062 C8,7.20286396 8.22368421,7 8.5,7 C8.77631579,7 9,7.20286396 9,7.45346062 L9,11.5465394 C9,11.797136 8.77631579,12 8.5,12 Z" id="路径" fill="#000000" fill-rule="nonzero"></path>
                    <path d="M8.5,7.26046169 C8.39561142,7.26046169 8.29335322,7.21865751 8.21239881,7.13724937 L6.11823605,4.97443309 C5.96058798,4.81161681 5.96058798,4.54539019 6.11823605,4.38257391 C6.27588411,4.21975762 6.53365999,4.21975762 6.69130805,4.38257391 L8.5,6.2505607 L10.3086919,4.38257391 C10.46634,4.21975762 10.7241159,4.21975762 10.881764,4.38257391 C11.039412,4.54539019 11.039412,4.81161681 10.881764,4.97443309 L8.78760119,7.13724937 C8.70664678,7.22085773 8.6022582,7.26046169 8.5,7.26046169 L8.5,7.26046169 Z M7.78448944,18 C7.37673417,18 7.05859543,17.8087005 6.86367945,17.5719673 C6.45816458,17.0841534 6.4447221,16.3476501 6.83007324,15.8191851 C6.84127531,15.8024464 6.85471779,15.788099 6.86816028,15.7737515 L12.6596295,9.75738067 C12.7380439,9.67368711 12.8455838,9.62825347 12.9576045,9.62825347 L18.5743214,9.62825347 C18.8095648,9.62825347 19,9.83150924 19,10.0825899 C19,10.3336706 18.8095648,10.5369263 18.5743214,10.5369263 L13.1301163,10.5369263 L7.48651443,16.4026488 C7.35433003,16.6035133 7.39241706,16.8378552 7.50219733,16.9717649 C7.65454545,17.1558907 7.92787592,17.1415433 8.25049548,16.933505 L11.817234,14.1237929 C12.0076691,13.9755357 12.2742783,14.0185781 12.413184,14.2194427 C12.5520896,14.4226984 12.5117622,14.7072565 12.3235674,14.8555137 L8.72322275,17.6891382 C8.37819905,17.911524 8.06006032,18 7.78448944,18 Z" id="形状" fill="#000000" fill-rule="nonzero"></path>
                    <path d="M9.28329153,20 L2.80926788,20 C2.7820375,20 2.75253792,19.9976731 2.72530754,19.9906923 C2.11035471,19.8673647 1.00298579,19.1297266 1.21629046,17.2286213 C1.36605757,15.892961 2.627732,15.5276323 2.68219276,15.5136707 C2.71849994,15.504363 2.75707632,15.4973822 2.79565269,15.4973822 L6.82801863,15.4973822 C7.06628449,15.4973822 7.25916637,15.6951716 7.25916637,15.9394997 C7.25916637,16.1838278 7.06628449,16.3816172 6.82801863,16.3816172 L2.86145945,16.3816172 C2.69807715,16.4421175 2.14439269,16.6934264 2.07177834,17.3286795 C1.91520363,18.7341478 2.66630837,19.0552647 2.86145945,19.113438 L9.1652932,19.113438 L13.5516541,16.4770215 C13.6174609,16.4374636 13.6923444,16.4165212 13.7694972,16.4165212 L18.5688523,16.4165212 C18.8071181,16.4165212 19,16.6143106 19,16.8586387 C19,17.1029668 18.8071181,17.3007563 18.5688523,17.3007563 L13.8874955,17.3007563 L9.5011346,19.9394997 C9.43532784,19.9790576 9.36044429,20 9.28329153,20 L9.28329153,20 Z M2.22154544,14.0383944 C2.09673952,14.0383944 1.97420279,13.982548 1.88797325,13.877836 C0.669413591,12.3653287 0,10.4479348 0,8.48167539 C0,3.80453752 3.71013973,0 8.27122895,0 C12.8323182,0 16.5424579,3.80453752 16.5424579,8.48167539 C16.5424579,8.97731239 16.4993431,9.47527632 16.417652,9.95695172 C16.3768064,10.1989529 16.1544249,10.3571844 15.9184283,10.3152996 C15.6824316,10.2734148 15.5258569,10.0430483 15.5689717,9.80337405 C15.6438552,9.37056428 15.6801624,8.92611984 15.6801624,8.48167539 C15.6801624,4.29319372 12.3557865,0.88423502 8.27122895,0.88423502 C4.18667144,0.88423502 0.862295474,4.29319372 0.862295474,8.48167539 C0.862295474,10.2431646 1.46363311,11.9581152 2.55284844,13.3123909 C2.70488475,13.5008726 2.67765437,13.7801047 2.49384928,13.9360093 C2.41442733,14.0034904 2.31685179,14.0383944 2.22154544,14.0383944 L2.22154544,14.0383944 Z" id="形状" fill="#000000" fill-rule="nonzero"></path>
                </g>
            </g>
        </g>
    </g>
</svg>