<?xml version="1.0" encoding="UTF-8"?>
<svg width="23px" height="17px" viewBox="0 0 23 17" version="1.1" xmlns="http://www.w3.org/2000/svg" xmlns:xlink="http://www.w3.org/1999/xlink">
    <title>ico_down</title>
    <defs>
        <filter id="filter-1">
            <feColorMatrix in="SourceGraphic" type="matrix" values="0 0 0 0 0.000000 0 0 0 0 0.894118 0 0 0 0 0.882353 0 0 0 1.000000 0"></feColorMatrix>
        </filter>
    </defs>
    <g id="页面-1" stroke="none" stroke-width="1" fill="none" fill-rule="evenodd">
        <g id="概览图备份-4" transform="translate(-1754.000000, -721.000000)">
            <g id="ico_down" transform="translate(1379.000000, 642.000000)" filter="url(#filter-1)">
                <g transform="translate(386.500000, 87.500000) scale(1, -1) translate(-386.500000, -87.500000) translate(375.000000, 79.000000)">
                    <path d="M22.7510622,0.00348133661 L17.2151595,0.680853421 C17.1314036,0.693012574 17.061389,0.75203813 17.0338875,0.833674144 C17.006386,0.915310157 17.0260364,1.00578663 17.0847635,1.06792318 L18.7324947,2.6887778 L12.4616328,9.09962076 L9.62848347,6.20869348 C9.45361814,6.03507799 9.17507719,6.03507799 9.00021186,6.20869348 L0.0621591248,15.3290248 C-0.0207197083,15.4214641 -0.0207197083,15.5631756 0.0621591248,15.6556149 L1.31870237,16.9377835 C1.40535548,17.0207388 1.54025795,17.0207388 1.62691107,16.9377835 L9.32027474,9.09962076 L12.1415699,11.9784521 C12.3188241,12.1459597 12.5925874,12.1459597 12.7698415,11.9784521 L20.3091008,4.28544058 L21.956832,5.96677487 C22.0177267,6.0266997 22.106395,6.04675082 22.1863994,6.01868845 C22.2664038,5.99062607 22.3242497,5.91918362 22.3361658,5.83371965 L23,0.184920278 C22.9913179,0.126798103 22.9599689,0.0747292266 22.9130828,0.0405562225 C22.8661968,0.00638321851 22.8077596,-0.00698886123 22.7510622,0.00348133661 L22.7510622,0.00348133661 Z" id="路径" fill="#000000" fill-rule="nonzero"></path>
                </g>
            </g>
        </g>
    </g>
</svg>