<?xml version="1.0" encoding="UTF-8"?>
<svg width="18px" height="18px" viewBox="0 0 18 18" version="1.1" xmlns="http://www.w3.org/2000/svg" xmlns:xlink="http://www.w3.org/1999/xlink">
    <title>ico_time02</title>
    <defs>
        <filter id="filter-1">
            <feColorMatrix in="SourceGraphic" type="matrix" values="0 0 0 0 0.474510 0 0 0 0 0.505882 0 0 0 0 0.588235 0 0 0 1.000000 0"></feColorMatrix>
        </filter>
    </defs>
    <g id="页面-1" stroke="none" stroke-width="1" fill="none" fill-rule="evenodd">
        <g id="分析台2" transform="translate(-402.000000, -99.000000)">
            <g id="ico_time02" transform="translate(285.000000, 98.000000)" filter="url(#filter-1)">
                <g transform="translate(117.000000, 1.000000)">
                    <path d="M8.99902703,0 C4.02810812,0.000486492187 0,4.03005405 0,9 C0,13.9704324 4.02956757,18 9,18 C13.9704324,18 18,13.9704324 18,9 L18,9.00097297 C18,4.03054054 13.9704324,0.000972966797 9,0.000972966797 L8.99902703,0 Z M8.99902703,16.8012973 C4.68972974,16.7254054 1.25902703,13.1711351 1.33491892,8.8628108 C1.40837838,4.66102703 4.79675675,1.27264866 8.99902703,1.19870271 C13.3073514,1.27459459 16.739027,4.82886487 16.6631351,9.1371892 C16.5891892,13.338973 13.2008108,16.7273514 8.99902703,16.8012973 Z M12.9001622,9.59935134 L8.99854054,9.59935134 L8.99854054,5.6991892 C8.99775043,5.53431056 8.86471067,5.40062076 8.69983784,5.39902703 L8.09902703,5.39902703 C7.93396406,5.40035632 7.8006312,5.53412278 7.79983784,5.6991892 L7.79983784,10.4988649 C7.80036556,10.6641211 7.93377532,10.7981816 8.09902703,10.7995135 L12.8987027,10.7995135 C13.0649045,10.7995135 13.1997882,10.6650658 13.2003259,10.4988649 L13.2003259,9.9 C13.2005869,9.82005833 13.1688463,9.74333631 13.1121818,9.68694597 C13.0555172,9.63055563 12.9786422,9.59918747 12.8987027,9.59983784 L12.9001622,9.59983784 L12.9001622,9.59935134 Z" id="形状" fill="#000000" fill-rule="nonzero"></path>
                </g>
            </g>
        </g>
    </g>
</svg>