<?xml version="1.0" encoding="utf-8"?>
<!-- Generator: Adobe Illustrator 24.2.0, SVG Export Plug-In . SVG Version: 6.00 Build 0)  -->
<svg version="1.1" id="图层_1" xmlns="http://www.w3.org/2000/svg" xmlns:xlink="http://www.w3.org/1999/xlink" x="0px" y="0px"
	 viewBox="0 0 226 210" style="enable-background:new 0 0 226 210;" xml:space="preserve">
<style type="text/css">
	.st0{fill:#358CCC;}
	.st1{fill:#1C71B8;}
	.st2{fill:#5CC1D6;}
	.st3{fill:#17AEB7;}
	.st4{clip-path:url(#SVGID_2_);fill:#09142F;}
</style>
<image style="overflow:visible;" width="226" height="210" xlink:href="../../../数据中台/img_blue01.png"  transform="matrix(1 0 0 1 20.6175 482.3408)">
</image>
<g>
	<polygon class="st0" points="359.6,183.6 472.6,365.5 359.6,393.6 	"/>
	<polygon class="st1" points="359.6,183.6 246.6,365.5 359.6,393.6 	"/>
</g>
<g>
	<polygon class="st2" points="389.7,0 502.7,182 389.7,210 	"/>
	<polygon class="st3" points="389.7,0 276.7,182 389.7,210 	"/>
</g>
<g>
	<polygon class="st2" points="113,0 226,182 113,210 	"/>
	<polygon class="st3" points="113,0 0,182 113,210 	"/>
	<g>
		<defs>
			<path id="SVGID_1_" d="M113,0l113,182l-113,28V0z M113,0L0,182l113,28V0z"/>
		</defs>
		<clipPath id="SVGID_2_">
			<use xlink:href="#SVGID_1_"  style="overflow:visible;"/>
		</clipPath>
		<polygon class="st4" points="3.8,169.3 113,195.2 226,169.3 241.9,185.8 113,219.5 -15.2,194.4 		"/>
	</g>
</g>
</svg>
